<svg id="svg" version="1.1" xmlns="http://www.w3.org/2000/svg" xmlns:xlink="http://www.w3.org/1999/xlink" width="400" height="208" viewBox="0, 0, 400,208"><g id="svgg"><path id="path0" d="M196.464 60.255 C 171.233 62.398,152.949 84.720,155.662 110.068 C 157.409 126.394,168.031 140.555,183.224 146.813 C 186.710 148.249,188.187 148.172,188.640 146.531 C 188.945 145.425,188.678 137.444,188.339 137.573 C 186.546 138.261,182.631 138.197,180.003 137.436 C 176.726 136.487,175.164 135.021,173.290 131.139 C 171.992 128.449,170.467 126.619,168.224 125.061 C 166.057 123.555,167.167 122.217,170.135 122.755 C 172.300 123.147,174.321 124.700,176.188 127.405 C 179.107 131.633,182.211 132.867,186.907 131.666 C 188.903 131.156,188.762 131.298,189.379 129.176 C 189.692 128.098,190.198 126.980,190.702 126.248 L 191.519 125.064 189.623 124.806 C 177.702 123.182,171.573 115.963,171.519 103.484 C 171.496 98.228,172.281 95.576,174.948 91.893 L 175.960 90.495 175.610 89.605 C 174.961 87.957,175.122 82.501,175.885 80.291 L 176.495 78.523 177.847 78.539 C 180.153 78.565,185.078 80.550,187.941 82.605 L 188.810 83.229 190.453 82.821 C 195.914 81.466,204.157 81.461,209.532 82.811 L 211.160 83.220 212.965 82.104 C 217.401 79.359,222.698 77.631,223.543 78.653 C 224.806 80.178,225.379 86.664,224.491 89.393 C 224.251 90.130,224.151 90.745,224.259 90.812 C 224.574 91.007,225.979 93.005,226.660 94.228 C 230.143 100.481,228.955 112.056,224.232 117.883 C 221.363 121.424,216.224 123.968,210.264 124.799 L 208.463 125.050 209.265 126.195 C 209.706 126.825,210.329 128.103,210.650 129.036 L 211.232 130.733 211.244 138.534 C 211.259 148.544,211.338 148.726,215.139 147.465 C 228.425 143.059,239.783 130.322,243.333 115.850 C 250.622 86.130,226.648 57.692,196.464 60.255 " stroke="none" fill="#1c1c24" fill-rule="evenodd"></path><path id="path1" d="M0.000 104.004 L 0.000 208.008 200.000 208.008 L 400.000 208.008 400.000 104.004 L 400.000 0.000 200.000 0.000 L 0.000 0.000 0.000 104.004 M208.065 60.619 C 236.225 65.978,252.221 95.487,241.505 122.309 C 237.010 133.561,227.366 143.003,215.901 147.378 C 213.518 148.288,212.619 148.313,211.704 147.495 L 211.024 146.889 210.908 138.395 C 210.836 133.209,210.705 129.658,210.569 129.277 C 210.031 127.765,209.271 126.326,208.764 125.861 C 207.853 125.022,208.035 124.900,210.921 124.420 C 222.874 122.432,228.292 115.835,228.288 103.276 C 228.286 97.988,227.521 95.389,224.964 91.987 L 224.007 90.715 224.356 88.995 C 225.042 85.608,224.357 79.458,223.226 78.853 C 221.792 78.086,217.025 79.779,212.246 82.752 L 211.179 83.416 209.958 83.104 C 204.381 81.678,195.450 81.676,190.044 83.098 L 188.824 83.418 187.500 82.582 C 183.177 79.852,178.556 78.210,176.933 78.827 C 175.445 79.393,174.829 87.439,176.056 90.284 C 176.145 90.490,175.866 91.027,175.279 91.783 C 172.360 95.542,171.295 99.800,171.769 105.817 C 172.622 116.642,178.180 122.648,188.984 124.421 C 191.932 124.904,192.134 125.027,191.288 125.822 C 190.622 126.448,189.463 129.010,189.336 130.138 C 189.217 131.191,188.481 131.647,186.164 132.103 C 181.639 132.993,178.825 131.579,175.413 126.700 C 173.442 123.883,169.715 122.079,167.852 123.042 C 166.812 123.580,166.964 123.805,169.921 126.113 C 171.346 127.225,172.569 128.979,173.679 131.500 C 175.884 136.508,181.195 138.782,187.728 137.517 C 189.153 137.241,189.110 137.087,189.039 142.265 L 188.976 146.889 188.296 147.495 C 187.377 148.316,186.482 148.287,184.053 147.361 C 157.280 137.151,146.776 104.262,162.590 80.155 C 169.961 68.918,181.528 61.856,195.528 60.043 C 197.834 59.744,205.262 60.086,208.065 60.619 " stroke="none" fill="#e3ebe3" fill-rule="evenodd"></path><path id="path2" d="M199.532 60.055 C 199.847 60.103,200.361 60.103,200.676 60.055 C 200.991 60.008,200.733 59.969,200.104 59.969 C 199.475 59.969,199.217 60.008,199.532 60.055 M196.204 60.258 C 196.404 60.310,196.732 60.310,196.932 60.258 C 197.132 60.205,196.968 60.163,196.568 60.163 C 196.167 60.163,196.004 60.205,196.204 60.258 M203.068 60.258 C 203.268 60.310,203.596 60.310,203.796 60.258 C 203.996 60.205,203.833 60.163,203.432 60.163 C 203.032 60.163,202.868 60.205,203.068 60.258 M169.621 72.023 L 168.799 72.907 169.683 72.085 C 170.505 71.320,170.662 71.139,170.505 71.139 C 170.471 71.139,170.073 71.537,169.621 72.023 M167.239 74.363 C 166.733 74.878,166.367 75.299,166.424 75.299 C 166.481 75.299,166.941 74.878,167.447 74.363 C 167.952 73.848,168.319 73.427,168.261 73.427 C 168.204 73.427,167.744 73.848,167.239 74.363 M176.525 78.579 C 176.471 78.667,176.816 78.709,177.293 78.672 C 178.692 78.564,178.863 78.469,177.703 78.443 C 177.110 78.430,176.579 78.491,176.525 78.579 M222.252 78.574 C 222.821 78.618,223.429 78.765,223.604 78.900 C 223.881 79.116,223.885 79.101,223.635 78.783 C 223.421 78.510,223.083 78.429,222.283 78.457 L 221.217 78.494 222.252 78.574 M224.925 85.387 C 224.926 86.188,224.964 86.490,225.009 86.059 C 225.054 85.627,225.053 84.972,225.007 84.603 C 224.961 84.233,224.924 84.587,224.925 85.387 M171.451 100.988 C 171.454 101.446,171.496 101.608,171.546 101.350 C 171.596 101.091,171.594 100.716,171.542 100.518 C 171.490 100.319,171.449 100.530,171.451 100.988 M155.435 101.404 C 155.437 101.862,155.480 102.024,155.529 101.766 C 155.579 101.507,155.577 101.132,155.525 100.934 C 155.473 100.735,155.432 100.946,155.435 101.404 M244.458 101.300 C 244.458 101.700,244.501 101.864,244.553 101.664 C 244.605 101.464,244.605 101.136,244.553 100.936 C 244.501 100.736,244.458 100.900,244.458 101.300 M155.249 105.044 C 155.249 106.131,155.284 106.576,155.327 106.032 C 155.370 105.489,155.370 104.600,155.327 104.056 C 155.284 103.513,155.249 103.957,155.249 105.044 M244.693 105.044 C 244.693 106.131,244.728 106.576,244.771 106.032 C 244.814 105.489,244.814 104.600,244.771 104.056 C 244.728 103.513,244.693 103.957,244.693 105.044 M171.458 105.148 C 171.460 105.720,171.500 105.930,171.548 105.613 C 171.596 105.297,171.595 104.829,171.545 104.573 C 171.496 104.317,171.457 104.576,171.458 105.148 M228.446 106.188 C 228.448 106.646,228.490 106.809,228.540 106.550 C 228.590 106.291,228.588 105.917,228.536 105.718 C 228.484 105.519,228.443 105.731,228.446 106.188 M155.435 108.892 C 155.437 109.350,155.480 109.513,155.529 109.254 C 155.579 108.995,155.577 108.621,155.525 108.422 C 155.473 108.223,155.432 108.435,155.435 108.892 M244.462 108.892 C 244.465 109.350,244.507 109.513,244.557 109.254 C 244.607 108.995,244.605 108.621,244.553 108.422 C 244.501 108.223,244.460 108.435,244.462 108.892 M222.985 119.085 C 222.480 119.600,222.113 120.021,222.170 120.021 C 222.227 120.021,222.688 119.600,223.193 119.085 C 223.698 118.570,224.065 118.149,224.008 118.149 C 223.950 118.149,223.490 118.570,222.985 119.085 M176.807 119.085 C 177.195 119.485,177.560 119.813,177.617 119.813 C 177.674 119.813,177.403 119.485,177.015 119.085 C 176.627 118.684,176.263 118.357,176.205 118.357 C 176.148 118.357,176.419 118.684,176.807 119.085 M170.463 126.885 C 170.910 127.343,171.322 127.717,171.379 127.717 C 171.436 127.717,171.118 127.343,170.671 126.885 C 170.224 126.427,169.812 126.053,169.754 126.053 C 169.697 126.053,170.016 126.427,170.463 126.885 M211.219 137.389 C 211.219 140.478,211.248 141.771,211.284 140.262 C 211.319 138.753,211.319 136.226,211.284 134.646 C 211.249 133.066,211.220 134.301,211.219 137.389 M183.307 132.234 C 183.622 132.282,184.137 132.282,184.451 132.234 C 184.766 132.187,184.509 132.148,183.879 132.148 C 183.250 132.148,182.993 132.187,183.307 132.234 M175.663 134.997 C 176.110 135.455,176.522 135.829,176.579 135.829 C 176.637 135.829,176.318 135.455,175.871 134.997 C 175.424 134.540,175.012 134.165,174.955 134.165 C 174.897 134.165,175.216 134.540,175.663 134.997 M168.383 137.077 C 169.177 137.878,169.874 138.534,169.932 138.534 C 169.989 138.534,169.385 137.878,168.591 137.077 C 167.796 136.277,167.099 135.621,167.042 135.621 C 166.985 135.621,167.588 136.277,168.383 137.077 M231.404 137.129 L 229.953 138.638 231.461 137.187 C 232.862 135.840,233.064 135.621,232.912 135.621 C 232.880 135.621,232.201 136.300,231.404 137.129 M188.747 140.510 C 188.747 142.226,188.779 142.900,188.818 142.008 C 188.857 141.116,188.857 139.712,188.818 138.888 C 188.778 138.064,188.746 138.794,188.747 140.510 M183.417 138.062 C 183.906 138.106,184.655 138.105,185.081 138.061 C 185.507 138.016,185.107 137.980,184.191 137.981 C 183.276 137.982,182.928 138.018,183.417 138.062 " stroke="none" fill="#747c7c" fill-rule="evenodd"></path><path id="path3" d="M198.076 60.050 C 198.276 60.102,198.604 60.102,198.804 60.050 C 199.004 59.997,198.840 59.955,198.440 59.955 C 198.040 59.955,197.876 59.997,198.076 60.050 M230.889 72.452 C 230.889 72.488,231.193 72.792,231.565 73.128 L 232.241 73.739 231.630 73.063 C 231.061 72.433,230.889 72.291,230.889 72.452 M171.465 102.964 C 171.465 103.708,171.503 104.012,171.549 103.640 C 171.595 103.268,171.595 102.660,171.549 102.288 C 171.503 101.916,171.465 102.220,171.465 102.964 " stroke="none" fill="#848484" fill-rule="evenodd"></path><path id="path4" d="M196.516 60.053 C 196.773 60.103,197.194 60.103,197.452 60.053 C 197.709 60.004,197.499 59.963,196.984 59.963 C 196.469 59.963,196.258 60.004,196.516 60.053 M202.447 60.056 C 202.763 60.103,203.231 60.102,203.487 60.053 C 203.743 60.003,203.484 59.964,202.912 59.966 C 202.340 59.967,202.131 60.008,202.447 60.056 M194.540 60.258 C 194.740 60.310,195.068 60.310,195.268 60.258 C 195.468 60.205,195.304 60.163,194.904 60.163 C 194.503 60.163,194.340 60.205,194.540 60.258 M204.732 60.258 C 204.932 60.310,205.260 60.310,205.460 60.258 C 205.660 60.205,205.497 60.163,205.096 60.163 C 204.696 60.163,204.532 60.205,204.732 60.258 M230.057 71.659 C 230.445 72.059,230.810 72.387,230.867 72.387 C 230.924 72.387,230.653 72.059,230.265 71.659 C 229.877 71.258,229.513 70.931,229.456 70.931 C 229.398 70.931,229.669 71.258,230.057 71.659 M168.375 73.063 L 167.343 74.155 168.435 73.123 C 169.449 72.164,169.622 71.971,169.467 71.971 C 169.434 71.971,168.943 72.462,168.375 73.063 M232.761 74.363 C 233.149 74.763,233.514 75.091,233.571 75.091 C 233.628 75.091,233.357 74.763,232.969 74.363 C 232.581 73.963,232.217 73.635,232.160 73.635 C 232.102 73.635,232.373 73.963,232.761 74.363 M199.215 81.897 C 199.585 81.943,200.240 81.944,200.671 81.899 C 201.103 81.854,200.801 81.816,200.000 81.816 C 199.199 81.815,198.846 81.851,199.215 81.897 M195.894 82.102 C 196.153 82.152,196.527 82.150,196.726 82.098 C 196.925 82.046,196.713 82.005,196.256 82.008 C 195.798 82.010,195.636 82.053,195.894 82.102 M203.383 82.102 C 203.641 82.152,204.016 82.150,204.215 82.098 C 204.413 82.046,204.202 82.005,203.744 82.008 C 203.287 82.010,203.124 82.053,203.383 82.102 M224.723 85.387 C 224.722 86.417,224.757 86.864,224.801 86.382 C 224.845 85.899,224.845 85.057,224.802 84.510 C 224.759 83.963,224.723 84.358,224.723 85.387 M175.200 85.491 C 175.200 86.006,175.240 86.217,175.290 85.959 C 175.339 85.702,175.339 85.281,175.290 85.023 C 175.240 84.766,175.200 84.977,175.200 85.491 M159.160 86.228 C 158.812 86.993,158.878 87.156,159.255 86.461 C 159.431 86.136,159.536 85.832,159.488 85.784 C 159.441 85.737,159.293 85.936,159.160 86.228 M244.458 99.636 C 244.458 100.036,244.501 100.200,244.553 100.000 C 244.605 99.800,244.605 99.472,244.553 99.272 C 244.501 99.072,244.458 99.236,244.458 99.636 M228.468 102.964 C 228.468 104.051,228.503 104.496,228.546 103.952 C 228.589 103.409,228.589 102.520,228.546 101.976 C 228.503 101.433,228.468 101.877,228.468 102.964 M244.670 101.820 C 244.673 102.278,244.715 102.440,244.765 102.182 C 244.815 101.923,244.813 101.549,244.761 101.350 C 244.709 101.151,244.668 101.362,244.670 101.820 M155.222 101.924 C 155.222 102.324,155.265 102.488,155.318 102.288 C 155.370 102.088,155.370 101.760,155.318 101.560 C 155.265 101.360,155.222 101.524,155.222 101.924 M171.655 105.876 C 171.655 106.277,171.698 106.440,171.750 106.240 C 171.803 106.040,171.803 105.712,171.750 105.512 C 171.698 105.312,171.655 105.476,171.655 105.876 M155.227 108.476 C 155.229 108.934,155.272 109.097,155.321 108.838 C 155.371 108.579,155.369 108.205,155.317 108.006 C 155.265 107.807,155.224 108.019,155.227 108.476 M244.666 108.372 C 244.666 108.773,244.709 108.937,244.761 108.736 C 244.813 108.536,244.813 108.209,244.761 108.008 C 244.709 107.808,244.666 107.972,244.666 108.372 M155.430 110.452 C 155.430 110.853,155.473 111.017,155.526 110.816 C 155.578 110.616,155.578 110.289,155.526 110.088 C 155.473 109.888,155.430 110.052,155.430 110.452 M244.458 110.452 C 244.458 110.853,244.501 111.017,244.553 110.816 C 244.605 110.616,244.605 110.289,244.553 110.088 C 244.501 109.888,244.458 110.052,244.458 110.452 M156.660 116.901 C 156.660 117.072,156.740 117.400,156.838 117.629 C 156.951 117.891,157.017 117.929,157.017 117.733 C 157.017 117.561,156.937 117.233,156.838 117.005 C 156.726 116.742,156.660 116.704,156.660 116.901 M243.073 117.228 C 242.996 117.532,242.974 117.822,243.023 117.871 C 243.072 117.920,243.174 117.711,243.251 117.406 C 243.327 117.101,243.350 116.811,243.301 116.762 C 243.252 116.713,243.149 116.923,243.073 117.228 M167.493 123.049 C 167.239 123.227,167.031 123.479,167.031 123.608 C 167.031 123.738,167.148 123.698,167.291 123.519 C 167.434 123.339,167.738 123.090,167.967 122.965 C 168.196 122.840,168.287 122.735,168.169 122.731 C 168.051 122.728,167.747 122.871,167.493 123.049 M170.567 126.781 C 170.955 127.181,171.319 127.509,171.376 127.509 C 171.434 127.509,171.163 127.181,170.775 126.781 C 170.387 126.381,170.022 126.053,169.965 126.053 C 169.908 126.053,170.179 126.381,170.567 126.781 M177.847 129.901 C 178.235 130.302,178.600 130.629,178.657 130.629 C 178.714 130.629,178.443 130.302,178.055 129.901 C 177.667 129.501,177.303 129.173,177.245 129.173 C 177.188 129.173,177.459 129.501,177.847 129.901 M211.014 138.950 C 211.014 143.125,211.042 144.834,211.076 142.746 C 211.110 140.658,211.110 137.241,211.076 135.153 C 211.042 133.066,211.014 134.774,211.014 138.950 M188.607 137.435 C 188.793 137.567,188.880 138.847,188.926 142.079 L 188.988 146.542 188.982 141.983 C 188.977 138.111,188.929 137.411,188.664 137.339 C 188.437 137.277,188.422 137.304,188.607 137.435 M182.683 137.845 C 182.884 137.897,183.211 137.897,183.411 137.845 C 183.612 137.793,183.448 137.750,183.047 137.750 C 182.647 137.750,182.483 137.793,182.683 137.845 M184.870 137.849 C 185.129 137.898,185.503 137.896,185.702 137.844 C 185.901 137.792,185.689 137.752,185.231 137.754 C 184.774 137.756,184.611 137.799,184.870 137.849 M188.592 146.948 C 188.525 147.124,188.162 147.455,187.786 147.684 C 187.411 147.913,187.219 148.101,187.360 148.101 C 187.705 148.102,189.010 146.923,188.845 146.758 C 188.774 146.686,188.660 146.772,188.592 146.948 M211.128 146.783 C 211.128 146.896,211.386 147.216,211.700 147.494 L 212.272 147.998 211.752 147.374 C 211.466 147.031,211.209 146.711,211.180 146.663 C 211.152 146.616,211.128 146.669,211.128 146.783 " stroke="none" fill="#999c9c" fill-rule="evenodd"></path></g></svg>